# xmcd
# Track frame offsets:
# 150
# 16177
# 35437
# 53112
# 66675
# 83237
# 99542
# 113767
# 128012
# 144450
#
# Disc length: 2206 seconds
# Revision: 0
# Processed by: cddbd v1.5.1PL0 Copyright (c) Steve Scherf et al.
# Submitted via: VisiTrax 2.9.10.228 - For more info visit www.synapsa.com
#
DISCID=84089c0a
DTITLE=Country Countdown Singers - Top Country Countdown
DYEAR=1990
DGENRE=
TTITLE0=Countdown Singers - Honey Im Home
TTITLE1=Countdown Singers - Commitment
TTITLE2=Countdown Singers - Right On The Money
TTITLE3=Countdown Singers - This Kiss
TTITLE4=Countdown Singers - Your Still The One
TTITLE5=Countdown Singers - Stand Beside Me
TTITLE6=Countdown Singers - There You Have It
TTITLE7=Countdown Singers - I'm Alright
TTITLE8=Countdown Singers - Wide Open Spaces
TTITLE9=Countdown Singers - From This Moment
EXTD=
EXTT0=
EXTT1=
EXTT2=
EXTT3=
EXTT4=
EXTT5=
EXTT6=
EXTT7=
EXTT8=
EXTT9=
PLAYORDER=
